<svg  xmlns="http://www.w3.org/2000/svg">
    <symbol id="vk" viewBox="0 0 32 32">  
        <path d="M16 0C7.16564 0 0 7.16564 0 16C0 24.8344 7.16564 32 16 32C24.8344 32 32 24.8344 32 16C32 7.16564 24.8344 0 16 0ZM24.1145 17.7342C24.8671 18.454 25.6524 19.1411 26.3067 19.9591C26.6012 20.319 26.8957 20.6789 27.092 21.1043C27.3865 21.6933 27.1247 22.3476 26.6012 22.3804H23.3292C22.4785 22.4458 21.8241 22.1186 21.2352 21.5297C20.7771 21.0716 20.3517 20.5808 19.9264 20.09C19.7628 19.8937 19.5665 19.6973 19.3374 19.5665C18.8793 19.272 18.4867 19.3701 18.2577 19.8282C17.9959 20.319 17.9305 20.8425 17.8978 21.3661C17.865 22.1513 17.636 22.3476 16.8507 22.3804C15.182 22.4458 13.6115 22.2168 12.1718 21.3661C10.8957 20.6135 9.88139 19.5992 9.03067 18.4213C7.32924 16.1309 6.05317 13.6115 4.87526 11.0266C4.6135 10.4376 4.80982 10.1431 5.46421 10.1104C6.54397 10.0777 7.591 10.0777 8.67076 10.1104C9.09611 10.1104 9.39059 10.3722 9.55419 10.7648C10.1431 12.1718 10.8303 13.546 11.7137 14.7894C11.9427 15.1166 12.2045 15.4438 12.5317 15.7055C12.9243 15.9673 13.1861 15.8691 13.3824 15.4438C13.4806 15.182 13.546 14.8875 13.5787 14.593C13.6769 13.6115 13.6769 12.6299 13.5133 11.6483C13.4151 10.9939 13.0879 10.6012 12.4663 10.4703C12.1391 10.4049 12.2045 10.3067 12.3354 10.1104C12.5971 9.81595 12.8589 9.61963 13.3497 9.61963H17.047C17.636 9.75051 17.7669 9.97955 17.8323 10.5685V14.6912C17.8323 14.9202 17.9305 15.6074 18.3558 15.7382C18.683 15.8364 18.9121 15.5746 19.1084 15.3783C19.9918 14.4294 20.6135 13.317 21.2025 12.1718C21.4642 11.6483 21.6605 11.1247 21.8896 10.6012C22.0532 10.2086 22.2822 10.0123 22.7403 10.0123H26.3067C26.4049 10.0123 26.5031 10.0123 26.6339 10.045C27.2229 10.1431 27.3865 10.4049 27.2229 10.9939C26.9284 11.91 26.3722 12.6953 25.816 13.4479C25.227 14.2658 24.5726 15.0511 23.9836 15.9018C23.3947 16.6871 23.4274 17.0798 24.1145 17.7342Z" />
    </symbol>
    <symbol id="f" viewBox="0 0 32 32">
        <path d="M32 16C32 7.1625 24.8375 0 16 0C7.1625 0 0 7.1625 0 16C0 24.8375 7.1625 32 16 32C16.0938 32 16.1875 32 16.2812 31.9937V19.5438H12.8438V15.5375H16.2812V12.5875C16.2812 9.16875 18.3688 7.30625 21.4188 7.30625C22.8813 7.30625 24.1375 7.4125 24.5 7.4625V11.0375H22.4C20.7437 11.0375 20.4188 11.825 20.4188 12.9812V15.5312H24.3875L23.8687 19.5375H20.4188V31.3813C27.1063 29.4625 32 23.3062 32 16Z"/>
    </symbol> 
    <symbol id="in" viewBox="0 0 32 32">
        <path d="M19.0625 16C19.0625 17.6937 17.6937 19.0625 16 19.0625C14.3062 19.0625 12.9375 17.6937 12.9375 16C12.9375 14.3062 14.3062 12.9375 16 12.9375C17.6937 12.9375 19.0625 14.3062 19.0625 16Z"/>
        <path d="M23.1625 10.5812C23.0125 10.1812 22.7813 9.81865 22.475 9.5249C22.1813 9.21865 21.8188 8.9874 21.4188 8.8374C21.0938 8.7124 20.6063 8.5624 19.7125 8.51865C18.7438 8.4749 18.45 8.4624 16 8.4624C13.5438 8.4624 13.2563 8.46865 12.2875 8.51865C11.3938 8.5624 10.9063 8.7124 10.5813 8.8374C10.1813 8.9874 9.81877 9.21865 9.52502 9.5249C9.21877 9.81865 8.98752 10.1812 8.83752 10.5812C8.71252 10.9062 8.56252 11.3937 8.51877 12.2874C8.47502 13.2562 8.46252 13.5437 8.46252 15.9999C8.46252 18.4499 8.47502 18.7437 8.51877 19.7124C8.56252 20.6062 8.70627 21.0937 8.83752 21.4187C8.98752 21.8187 9.21877 22.1812 9.52502 22.4749C9.81877 22.7812 10.1813 23.0124 10.5813 23.1624C10.9063 23.2874 11.3938 23.4374 12.2875 23.4812C13.2563 23.5249 13.5438 23.5374 16 23.5374C18.4563 23.5374 18.7438 23.5312 19.7125 23.4812C20.6063 23.4374 21.0938 23.2937 21.4188 23.1624C22.2188 22.8562 22.8563 22.2187 23.1625 21.4187C23.2875 21.0937 23.4375 20.6062 23.4813 19.7124C23.525 18.7437 23.5375 18.4499 23.5375 15.9999C23.5375 13.5437 23.5313 13.2562 23.4813 12.2874C23.4375 11.3937 23.2875 10.9062 23.1625 10.5812ZM16 20.7187C13.3938 20.7187 11.2813 18.6062 11.2813 15.9999C11.2813 13.3937 13.3938 11.2812 16 11.2812C18.6063 11.2812 20.7188 13.3937 20.7188 15.9999C20.7188 18.6062 18.6063 20.7187 16 20.7187ZM20.9063 12.1999C20.3 12.1999 19.8063 11.7062 19.8063 11.0999C19.8063 10.4937 20.3 9.9999 20.9063 9.9999C21.5125 9.9999 22.0063 10.4937 22.0063 11.0999C22.0063 11.7062 21.5125 12.1999 20.9063 12.1999Z"/>
        <path d="M16 0C7.1625 0 0 7.1625 0 16C0 24.8375 7.1625 32 16 32C24.8375 32 32 24.8375 32 16C32 7.1625 24.8375 0 16 0ZM25.1313 19.7875C25.0875 20.7625 24.9312 21.4312 24.7062 22.0187C24.2312 23.25 23.2562 24.2312 22.0187 24.7062C21.4375 24.9312 20.7688 25.0875 19.7875 25.1313C18.8063 25.175 18.4938 25.1875 16 25.1875C13.5062 25.1875 13.1937 25.175 12.2125 25.1313C11.2375 25.0875 10.5687 24.9312 9.98125 24.7062C9.36875 24.475 8.8125 24.1125 8.35625 23.6437C7.8875 23.1875 7.525 22.6312 7.29375 22.0187C7.06875 21.4375 6.9125 20.7688 6.86875 19.7875C6.825 18.8063 6.8125 18.4938 6.8125 16C6.8125 13.5062 6.825 13.1937 6.86875 12.2125C6.9125 11.2375 7.06875 10.5687 7.29375 9.98125C7.525 9.36875 7.8875 8.8125 8.35625 8.35625C8.8125 7.8875 9.36875 7.525 9.98125 7.29375C10.5687 7.06875 11.2312 6.9125 12.2125 6.86875C13.1937 6.825 13.5062 6.8125 16 6.8125C18.4938 6.8125 18.8063 6.825 19.7875 6.86875C20.7625 6.9125 21.4312 7.06875 22.0187 7.29375C22.6312 7.525 23.1875 7.8875 23.6437 8.35625C24.1125 8.8125 24.475 9.36875 24.7062 9.98125C24.9312 10.5687 25.0875 11.2312 25.1313 12.2125C25.175 13.1937 25.1875 13.5062 25.1875 16C25.1875 18.4938 25.175 18.8063 25.1313 19.7875Z"/>
    </symbol>
    <symbol id="t" viewBox="0 0 32 32">
        <path d="M16 32C24.8375 32 32 24.8375 32 16C32 7.1625 24.8375 0 16 0C7.1625 0 0 7.1625 0 16C0 24.8375 7.1625 32 16 32ZM7.31875 15.6562L22.75 9.70625C23.4688 9.45 24.0938 9.88125 23.8563 10.9625L21.2313 23.3375C21.0375 24.2125 20.5125 24.4313 19.7875 24.0125L15.7875 21.0625L13.8562 22.9188C13.6438 23.1313 13.4625 23.3125 13.05 23.3125L13.3313 19.2437L20.75 12.55C21.075 12.2688 20.675 12.1062 20.25 12.3875L11.0875 18.1562L7.1375 16.925C6.28125 16.65 6.2625 16.0688 7.31875 15.6562Z"/>
    </symbol>
</svg>