<svg  xmlns="http://www.w3.org/2000/svg">
    <symbol x='0' y='4' id="icon-1-1" width="24" height="24" >
        <path width="11" height="14" viewBox="0 0 11 14" d="M5.25 0.5C2.355 0.5 0 2.855 0 5.75C0 8.444 4.212 13.2155 4.692 13.751C4.8345 13.9085 5.037 14 5.25 14C5.463 14 5.6655 13.9085 5.808 13.751C6.288 13.2155 10.5 8.444 10.5 5.75C10.5 2.855 8.145 0.5 5.25 0.5ZM5.25 12.1055C3.612 10.163 1.5 7.181 1.5 5.75C1.5 3.683 3.183 2 5.25 2C7.317 2 9 3.683 9 5.75C9 7.1795 6.888 10.163 5.25 12.1055Z" fill="black"/>      
    </symbol>
    <symbol x='3' y='7' id="icon-1-2" width="5" height="5" viewBox="0 0 5 5" >
        <path  d="M2.25 0.5C1.0095 0.5 0 1.5095 0 2.75C0 3.9905 1.0095 5 2.25 5C3.4905 5 4.5 3.9905 4.5 2.75C4.5 1.5095 3.4905 0.5 2.25 0.5ZM2.25 3.5C1.836 3.5 1.5 3.164 1.5 2.75C1.5 2.336 1.836 2 2.25 2C2.664 2 3 2.336 3 2.75C3 3.164 2.664 3.5 2.25 3.5Z" fill="black"/>
    </symbol>
    <symbol x='16' y='0' id="icon-1-3" width="8" height="9" viewBox="0 0 8 9">
        <path  d="M7.25 0H1.25C0.836 0 0.5 0.336 0.5 0.75V5.25V8.25C0.5 8.664 0.836 9 1.25 9C1.664 9 2 8.664 2 8.25V6H7.25C7.664 6 8 5.664 8 5.25V0.75C8 0.336 7.664 0 7.25 0ZM6.5 4.5H2V1.5H6.5V4.5Z" fill="black"/>
    </symbol>
    <symbol x='3' y='10' id="icon-1-4" width="21" height="14" viewBox="0 0 21 14" >
        <path  d="M18 6.5H10.5C9.6735 6.5 9 5.8265 9 5C9 4.1735 9.6735 3.5 10.5 3.5H12.138C12.4485 4.3715 13.2735 5 14.25 5C15.4905 5 16.5 3.9905 16.5 2.75C16.5 1.5095 15.4905 0.5 14.25 0.5C13.2735 0.5 12.4485 1.1285 12.138 2H10.5C8.8455 2 7.5 3.3455 7.5 5C7.5 6.6545 8.8455 8 10.5 8H18C18.8265 8 19.5 8.6735 19.5 9.5C19.5 10.3265 18.8265 11 18 11H4.362C4.0515 10.1285 3.2265 9.5 2.25 9.5C1.0095 9.5 0 10.5095 0 11.75C0 12.9905 1.0095 14 2.25 14C3.2265 14 4.0515 13.3715 4.362 12.5H18C19.6545 12.5 21 11.1545 21 9.5C21 7.8455 19.6545 6.5 18 6.5ZM14.25 2C14.664 2 15 2.336 15 2.75C15 3.164 14.664 3.5 14.25 3.5C13.836 3.5 13.5 3.164 13.5 2.75C13.5 2.336 13.836 2 14.25 2ZM2.25 12.5C1.836 12.5 1.5 12.164 1.5 11.75C1.5 11.336 1.836 11 2.25 11C2.664 11 3 11.336 3 11.75C3 12.164 2.664 12.5 2.25 12.5Z" fill="black"/>
    </symbol>


    <symbol x='1' y='0' id="icon-2-1" width="22" height="24" viewBox="0 0 22 24" >
        <path d="M21.08 7.22744V5.12612C21.08 4.73628 20.7639 4.42024 20.3741 4.42024H17.096C16.7061 4.42024 16.3901 4.73628 16.3901 5.12612V7.22744C16.0301 7.25962 15.7478 7.56174 15.7478 7.93012V11.7258C15.7478 12.5907 16.4515 13.2943 17.3164 13.2943H18.0292V20.8141C18.0292 21.7924 17.2331 22.5882 16.2546 22.5882H8.53833C7.56007 22.5882 6.76421 21.7924 6.76421 20.8141V19.2941H8.26539C8.65523 19.2941 8.97127 18.9781 8.97127 18.5882V16.298H9.72106C10.8887 16.298 11.8387 15.348 11.8387 14.1804V7.77821C11.8387 6.82607 11.2069 6.01887 10.3407 5.75327V3.33271C10.3407 2.94287 10.0246 2.62682 9.6348 2.62682H8.64704V0.705882C8.64704 0.316047 8.33099 0 7.94115 0C7.55132 0 7.23527 0.316047 7.23527 0.705882V2.62682H4.88139V0.705882C4.88139 0.316047 4.56534 0 4.17551 0C3.78567 0 3.46963 0.316047 3.46963 0.705882V2.62682H2.48186C2.09202 2.62682 1.77598 2.94287 1.77598 3.33271V5.75327C0.909672 6.01887 0.277954 6.82602 0.277954 7.77821V14.1804C0.277954 15.348 1.22793 16.298 2.3956 16.298H3.14539V18.5882C3.14539 18.9781 3.46144 19.2941 3.85127 19.2941H5.35245V20.8141C5.35245 22.5708 6.78163 24 8.53833 24H16.2546C18.0115 24 19.4409 22.5708 19.4409 20.8141V13.2943H20.1535C21.0184 13.2943 21.722 12.5907 21.722 11.7258V7.93012C21.722 7.56179 21.4398 7.25976 21.08 7.22744ZM8.92892 4.03859V5.66056H3.18774V4.03859H8.92892ZM1.68967 14.1804V7.77821C1.68967 7.38899 2.00633 7.07233 2.39555 7.07233H9.72106C10.1103 7.07233 10.4269 7.38899 10.4269 7.77821V14.1804C10.4269 14.5696 10.1103 14.8863 9.72106 14.8863C9.42525 14.8863 2.73245 14.8863 2.39555 14.8863C2.00633 14.8863 1.68967 14.5696 1.68967 14.1804ZM4.55715 16.298H7.55951V17.8824H4.55715V16.298ZM19.6682 5.832V7.22424H17.8019V5.832H19.6682ZM20.3103 11.7258C20.3103 11.8122 20.2399 11.8825 20.1535 11.8825C20.0671 11.8825 18.1153 11.8825 17.3164 11.8825C17.2299 11.8825 17.1596 11.8122 17.1596 11.7258V8.636H20.3103V11.7258Z" fill="black"/>
    </symbol>
    <symbol x='5' y='8' id="icon-2-2" width="4" height="6" viewBox="0 0 4 6" >
        <path d="M1.16377 3.68512H1.87986L1.56777 4.40893C1.41341 4.7669 1.5785 5.18229 1.93643 5.33664C2.29497 5.49109 2.70994 5.32553 2.8641 4.96794L3.60109 3.25876C3.80203 2.79279 3.45925 2.2734 2.9529 2.2734H2.2368L2.5489 1.54964C2.70325 1.19166 2.53817 0.776277 2.18024 0.621925C1.82217 0.467619 1.40687 0.632701 1.25257 0.99063L0.515577 2.69975C0.314635 3.16568 0.657412 3.68512 1.16377 3.68512Z" fill="black"/>
    </symbol>

    <symbol x='0' y='0' id="icon-3-1" width="24" height="24" viewBox="0 0 24 24" >
        <path d="M20.3373 6.39972H14.9742C15.5392 5.7226 15.88 4.85193 15.88 3.90308C15.88 1.75085 14.1292 0 11.9771 0C9.82489 0 8.07404 1.75085 8.07404 3.90308C8.07404 4.85193 8.41479 5.7226 8.97986 6.39972H3.6167L0.28125 24H23.6728L20.3373 6.39972ZM11.9771 1.40625C13.3537 1.40625 14.4738 2.52631 14.4738 3.90308C14.4738 5.27966 13.3537 6.39972 11.9771 6.39972C10.6003 6.39972 9.48029 5.27966 9.48029 3.90308C9.48029 2.52631 10.6003 1.40625 11.9771 1.40625V1.40625ZM4.78143 7.80597H19.1726L21.975 22.5938H1.979L4.78143 7.80597Z" fill="black"/>
    </symbol>
    <symbol x='7' y='12' id="icon-3-2" width="6" height="7" viewBox="0 0 6 7" >
        <path d="M5.00549 0.402588H3.40936L1.17786 2.63098V0.402588H0.0308838V6.02246H1.17786V4.10168L1.75629 3.53772L3.50439 6.02246H4.98499L2.57532 2.74963L5.00549 0.402588Z" fill="black"/>
    </symbol>
    <symbol x='12' y='12' id="icon-3-3" width="6" height="7" viewBox="0 0 6 7" >
        <path d="M3.27472 4.00067H4.79028V4.617C4.66852 4.70581 4.50262 4.79297 4.29553 4.87665C4.04358 4.97864 3.78174 5.03027 3.5177 5.03027C3.21539 5.03027 2.92609 4.96271 2.65747 4.82941C2.39856 4.70105 2.2063 4.50916 2.07007 4.24255C1.92944 3.96771 1.85822 3.61523 1.85822 3.19501C1.85822 2.85461 1.91864 2.53546 2.03711 2.24744C2.10413 2.08722 2.19952 1.93799 2.32074 1.80341C2.43628 1.67523 2.59357 1.56903 2.78784 1.48792C2.98578 1.40533 3.22766 1.3634 3.50708 1.3634C3.73468 1.3634 3.94324 1.40277 4.12689 1.48041C4.30157 1.5542 4.43561 1.65106 4.52515 1.76807C4.62219 1.89478 4.70624 2.07751 4.77509 2.31134L4.83954 2.53015L5.89551 2.24048L5.83856 2.0191C5.7417 1.64191 5.59595 1.32898 5.40515 1.08856C5.20941 0.841919 4.93896 0.648193 4.60095 0.512695C4.27356 0.381409 3.90442 0.314941 3.5036 0.314941C2.95392 0.314941 2.45917 0.430664 2.03308 0.658813C1.59692 0.892456 1.25854 1.25336 1.02802 1.73145C0.803711 2.19617 0.690186 2.70264 0.690186 3.2373C0.690186 3.77856 0.805176 4.27698 1.03241 4.71844C1.26477 5.17035 1.61322 5.52026 2.06842 5.75867C2.51392 5.99213 3.01453 6.1106 3.55634 6.1106C3.95789 6.1106 4.35468 6.03754 4.73572 5.89325C5.1131 5.75061 5.48315 5.53564 5.83563 5.25458L5.92334 5.18481V2.92712L3.27472 2.93134V4.00067Z" fill="black"/>
    </symbol>
    
   
    <symbol x='0' y='1' id="icon-4-1" width="24" height="22" viewBox="0 0 24 22" >
        <path d="M24 0.78125H0V18.2266H14.7643V21.2543L17.3884 19.9725L20.0125 21.2543V18.2266H24V0.78125ZM17.3884 15.413C16.0701 15.413 14.9978 14.3406 14.9978 13.0224C14.9978 11.7042 16.0701 10.6318 17.3884 10.6318C18.7066 10.6318 19.7791 11.7042 19.7791 13.0224C19.7791 14.3406 18.7066 15.413 17.3884 15.413ZM17.3884 18.4075L16.1706 19.0023V16.6177C16.5531 16.7477 16.9623 16.8193 17.3884 16.8193C17.8143 16.8193 18.2236 16.7477 18.6063 16.6177V19.0023L17.3884 18.4075ZM22.5938 16.8204H20.0125V15.7626C20.7343 15.071 21.1853 14.0987 21.1853 13.0224C21.1853 10.9288 19.4821 9.22552 17.3884 9.22552C15.2948 9.22552 13.5916 10.9288 13.5916 13.0224C13.5916 14.0987 14.0424 15.0712 14.7643 15.7626V16.8204H1.40625V2.1875H22.5938V16.8204Z" fill="black"/>
    </symbol>
    <symbol x='4' y='4' id="icon-4-2" width="16" height="3" viewBox="0 0 16 3" >    
        <path d="M0.925171 0.595947H15.0748V2.0022H0.925171V0.595947Z" fill="black"/>
    </symbol>
    <symbol x='2' y='7' id="icon-4-3" width="20" height="2" viewBox="0 0 20 2">
        <path d="M0.814148 0.410645H19.1859V1.81689H0.814148V0.410645Z" fill="black"/>
    </symbol>
    <symbol x='2' y='12' id="icon-4-4" width="8" height="2" viewBox="0 0 8 2" >
        <path d="M0.814148 0.190796H7.65442V1.59705H0.814148V0.190796Z" fill="black"/>
    </symbol>
    <symbol x='2' y='14.5' id="icon-4-5" width="8" height="2" viewBox="0 0 8 2" >
        <path d="M0.814148 0.190796H7.65442V1.59705H0.814148V0.190796Z" fill="black"/>
    </symbol>
    
</svg>